<?xml version="1.0" encoding="UTF-8"?><svg id="_레이어_1" xmlns="http://www.w3.org/2000/svg" viewBox="0 0 1457.77 271.79"><defs><style>.cls-1,.cls-2{fill:#fff;}.cls-2,.cls-3{stroke:#000;stroke-linecap:round;stroke-linejoin:round;stroke-width:5.82px;}.cls-4{fill:#ffd527;}.cls-3{fill:none;}</style></defs><path class="cls-1" d="M24.92,40.85H1364.9c13.75,0,24.92,11.17,24.92,24.92v205.42H24.92c-13.75,0-24.92-11.17-24.92-24.92V65.77c0-13.75,11.17-24.92,24.92-24.92Z"/><g><path class="cls-2" d="M1305.58,167.78s-24.18,54.68-15.99,66.58c8.18,11.9,39.06-7.44,71.42-47.24"/><g><path class="cls-1" d="M1376.26,252.52c-41.84,0-75.89-34.04-75.89-75.89,0-15.59,4.69-30.57,13.57-43.32,8.29-11.91,19.65-21.09,32.95-26.67V37.91c0-17.57,14.29-31.86,31.86-31.86s31.86,14.29,31.86,31.86V108.95c25.29,12.87,41.53,39.23,41.53,67.68,0,41.84-34.04,75.89-75.89,75.89Z"/><path d="M1378.75,8.96c15.99,0,28.95,12.96,28.95,28.95V110.76c24.56,11.75,41.53,36.83,41.53,65.87,0,40.3-32.67,72.98-72.98,72.98s-72.98-32.67-72.98-72.98c0-30.97,19.3-57.44,46.52-68.03V37.91c0-15.99,12.96-28.95,28.95-28.95m0-5.82c-19.17,0-34.77,15.6-34.77,34.77V104.73c-13.04,5.85-24.19,15.09-32.43,26.92-9.22,13.24-14.09,28.79-14.09,44.98,0,43.45,35.35,78.79,78.79,78.79s78.79-35.35,78.79-78.79c0-15.16-4.32-29.88-12.48-42.57-7.27-11.31-17.27-20.54-29.05-26.87V37.91c0-19.17-15.6-34.77-34.77-34.77h0Z"/></g><line class="cls-2" x1="1357.86" y1="28.96" x2="1357.86" y2="33.34"/><line class="cls-2" x1="1376.26" y1="33.34" x2="1376.26" y2="37.71"/><g><path class="cls-4" d="M1361.16,59.61c-.74,0-1.48-.1-2.2-.31l-17.17-4.85c-4.31-1.22-6.83-5.72-5.61-10.03,.99-3.48,4.21-5.92,7.83-5.92,.74,0,1.48,.1,2.2,.31l17.17,4.85c2.08,.59,3.82,1.96,4.88,3.86,1.06,1.9,1.32,4.09,.73,6.17-.98,3.48-4.2,5.91-7.83,5.91Z"/><path d="M1344.01,41.41c.47,0,.94,.06,1.41,.2l17.17,4.85c2.76,.78,4.38,3.68,3.6,6.44-.65,2.29-2.75,3.8-5.03,3.8-.47,0-.94-.06-1.41-.2l-17.17-4.85c-2.76-.78-4.38-3.68-3.6-6.44,.65-2.29,2.75-3.8,5.03-3.8m0-5.82h0c-4.92,0-9.29,3.3-10.63,8.03-1.66,5.86,1.76,11.97,7.62,13.62l17.17,4.85c.98,.28,1.98,.42,2.99,.42,4.92,0,9.29-3.3,10.63-8.03,.8-2.83,.45-5.81-.99-8.39s-3.79-4.44-6.62-5.24l-17.17-4.85c-.98-.28-1.98-.42-2.99-.42h0Z"/></g><rect x="1366.73" y="251.42" width="5.58" height="19.97"/><rect x="1381.4" y="251.42" width="5.58" height="19.97"/><path class="cls-3" d="M1415.89,143.33s-54.68-24.18-66.58-15.99,7.44,39.06,47.24,71.42"/></g></svg>