<?xml version="1.0" encoding="UTF-8"?><svg id="_레이어_1" xmlns="http://www.w3.org/2000/svg" viewBox="0 0 1457.77 271.79"><defs><style>.cls-1,.cls-2{fill:#fff;}.cls-2{stroke:#000;stroke-linecap:round;stroke-linejoin:round;stroke-width:5.85px;}.cls-3{fill:#ffd527;}</style></defs><path class="cls-1" d="M24.92,40.85H1364.9c13.75,0,24.92,11.17,24.92,24.92v205.42H24.92c-13.75,0-24.92-11.17-24.92-24.92V65.77c0-13.75,11.17-24.92,24.92-24.92Z"/><g><g><path class="cls-1" d="M1377.1,251.72c-42.05,0-76.27-34.21-76.27-76.27,0-15.67,4.72-30.72,13.64-43.54,8.33-11.96,19.75-21.2,33.11-26.81V36.04c0-17.66,14.36-32.02,32.02-32.02s32.02,14.36,32.02,32.02V107.43c25.42,12.93,41.74,39.43,41.74,68.02,0,42.05-34.21,76.27-76.26,76.27Z"/><path d="M1379.6,6.94c16.07,0,29.1,13.03,29.1,29.1V109.25c24.69,11.81,41.74,37.01,41.74,66.2,0,40.51-32.84,73.34-73.34,73.34s-73.34-32.84-73.34-73.34c0-31.13,19.39-57.72,46.75-68.37V36.04c0-16.07,13.03-29.1,29.1-29.1m0-5.85c-19.27,0-34.94,15.67-34.94,34.94V103.19c-13.1,5.88-24.31,15.17-32.59,27.05-9.27,13.3-14.17,28.94-14.17,45.21,0,43.66,35.52,79.19,79.19,79.19s79.19-35.52,79.19-79.19c0-15.23-4.34-30.03-12.54-42.78-7.31-11.37-17.35-20.64-29.2-27.01V36.04c0-19.27-15.68-34.94-34.94-34.94h0Z"/></g><line class="cls-2" x1="1366.75" y1="29.24" x2="1366.75" y2="33.64"/><line class="cls-2" x1="1391.11" y1="29.24" x2="1391.11" y2="33.64"/><g><path class="cls-3" d="M1369.96,58.92c-4.5,0-8.17-3.66-8.17-8.17s3.66-8.17,8.17-8.17h17.93c4.5,0,8.17,3.66,8.17,8.17s-3.66,8.17-8.17,8.17h-17.93Z"/><path d="M1387.89,45.51c2.88,0,5.24,2.36,5.24,5.24s-2.36,5.24-5.24,5.24h-17.93c-2.88,0-5.24-2.36-5.24-5.24s2.36-5.24,5.24-5.24h17.93m0-5.85h-17.93c-6.11,0-11.09,4.97-11.09,11.09s4.98,11.09,11.09,11.09h17.93c6.12,0,11.09-4.97,11.09-11.09s-4.97-11.09-11.09-11.09h0Z"/></g><path class="cls-2" d="M1323.19,131.3s40.02-26.54,43.56-8.97c3.54,17.57-36.46,57.94-36.46,57.94"/><path class="cls-2" d="M1428.86,131.3s-40.02-26.54-43.56-8.97c-3.54,17.57,36.46,57.94,36.46,57.94"/><rect x="1367.52" y="250.61" width="5.61" height="20.07"/><rect x="1382.27" y="250.61" width="5.61" height="20.07"/></g></svg>