<?xml version="1.0" encoding="UTF-8"?><svg id="_레이어_1" xmlns="http://www.w3.org/2000/svg" viewBox="0 0 324.81 324.81"><defs><style>.cls-1,.cls-2{fill:#fff;}.cls-3{fill:#3e702c;}.cls-4{fill:#6ba848;}.cls-4,.cls-5{fill-rule:evenodd;}.cls-6{fill:#edffe1;}.cls-2{stroke:#000;stroke-miterlimit:10;stroke-width:22px;}.cls-5{fill:#559141;}</style></defs><path class="cls-2" d="M280.53,58.4l-17.78-18.04c-3.02-3.07-8.01-3.1-11.08-.08l-62.94,62.03c-14.71-4.48-31.4-1-43.07,10.5l-19.06,18.78h0l-4.13,4.07L33.8,223.06c-4.97,4.9-5.03,12.98-.13,17.96l42.89,43.52c4.9,4.97,12.98,5.03,17.96,.13l33.92-33.44h0s54.75-53.96,54.75-53.96l23.19-22.85c11.67-11.5,15.39-28.14,11.13-42.91l62.94-62.03c3.07-3.02,3.1-8.01,.08-11.08Z"/><g><path class="cls-4" d="M217.51,131.51l62.94-62.03c3.07-3.02,3.1-8.01,.08-11.08l-17.78-18.04c-3.02-3.07-8.01-3.1-11.08-.08l-62.94,62.03c-14.71-4.48-31.4-1-43.07,10.5L33.8,223.06c-4.97,4.9-5.03,12.98-.13,17.96l42.89,43.52c4.9,4.97,12.98,5.03,17.96,.13l111.86-110.25c11.67-11.5,15.39-28.14,11.13-42.91Z"/><rect class="cls-6" x="84.27" y="150.08" width="86.5" height="82.67" transform="translate(174.34 -33.78) rotate(45.42)"/></g><rect class="cls-6" x="84.27" y="150.08" width="86.5" height="82.67" transform="translate(174.34 -33.78) rotate(45.42)"/><path class="cls-5" d="M266.5,83.23l13.95-13.75c3.07-3.02,3.1-8.01,.08-11.08l-17.78-18.04c-3.02-3.07-8.01-3.1-11.08-.08l-14.16,13.96,28.99,28.99Z"/><rect class="cls-3" x="229.23" y="67.85" width="41.14" height="6.38" transform="translate(123.4 -155.83) rotate(45)"/><rect class="cls-3" x="235.81" y="61.26" width="41.14" height="6.38" transform="translate(120.67 -162.42) rotate(45)"/><rect class="cls-1" x="231.57" y="80.37" width="6.89" height="44.94" rx="3.45" ry="3.45" transform="translate(141.55 -136.06) rotate(45)"/></svg>