<?xml version="1.0" encoding="UTF-8"?><svg id="_레이어_1" xmlns="http://www.w3.org/2000/svg" xmlns:xlink="http://www.w3.org/1999/xlink" viewBox="0 0 400 250"><defs><style>.cls-1,.cls-2,.cls-3{fill:#fff;}.cls-4{fill:#c5eaff;}.cls-2{stroke-linecap:round;stroke-linejoin:round;stroke-width:7.99px;}.cls-2,.cls-3{stroke:#000;}.cls-5{fill:#6ba848;fill-rule:evenodd;}.cls-6{fill:#edffe1;}.cls-7{fill:#ced5db;}.cls-8{clip-path:url(#clippath-1);}.cls-3{stroke-miterlimit:10;stroke-width:11.71px;}.cls-9{clip-path:url(#clippath);}.cls-10{fill:none;}.cls-11{fill:#ffd527;}.cls-12{font-family:KoreanSWGIG4-R, KoreanSWGIG4R;font-size:21.72px;}</style><clipPath id="clippath"><rect class="cls-10" x="-3.77" y="-273.62" width="393.4" height="251.88"/></clipPath><clipPath id="clippath-1"><rect class="cls-10" x="-3.77" y="-.94" width="393.4" height="251.88"/></clipPath></defs><g class="cls-9"><g><g><path class="cls-1" d="M121.81,1.84c-3.71,0-7.16-1.99-9.01-5.19l-22.43-38.85c-2.86-4.96-1.16-11.32,3.8-14.18l116.35-67.17c4.96-2.86,10.6-4.37,16.32-4.37,11.74,0,22.66,6.28,28.5,16.38,9.04,15.67,3.66,35.77-12.01,44.82L126.98,.45c-1.57,.91-3.36,1.39-5.17,1.39Z"/><path d="M226.84-123.93c9.98,0,19.72,5.17,25.04,14.39h0c7.92,13.73,3.18,31.44-10.55,39.36L124.99-3c-1,.58-2.09,.85-3.18,.85-2.21,0-4.37-1.15-5.55-3.19l-22.43-38.85c-1.76-3.04-.7-6.97,2.34-8.73l116.35-67.17c4.51-2.6,9.45-3.84,14.33-3.84m0-7.99v0h0c-6.42,0-12.76,1.7-18.32,4.91L92.18-59.83c-6.86,3.96-9.22,12.77-5.26,19.64L109.34-1.35c2.56,4.43,7.33,7.18,12.47,7.18,2.51,0,4.99-.66,7.17-1.92L245.32-63.26c17.57-10.15,23.62-32.7,13.47-50.27-6.55-11.34-18.79-18.38-31.95-18.38h0Z"/></g><g><path class="cls-1" d="M76.44,100.73C19,100.73-27.74,53.99-27.74-3.45c0-21.4,6.44-41.97,18.63-59.47,11.38-16.34,26.98-28.96,45.23-36.62v-94.36c0-24.12,19.62-43.74,43.74-43.74s43.74,19.62,43.74,43.74V-96.37c16.5,8.39,30.47,21.01,40.52,36.63,10.79,16.78,16.5,36.24,16.5,56.28,0,57.44-46.74,104.18-104.18,104.18Z"/><path d="M79.87-233.64c21.95,0,39.75,17.79,39.75,39.75V-93.88c33.72,16.13,57.02,50.56,57.02,90.43,0,55.33-44.86,100.19-100.19,100.19S-23.75,51.88-23.75-3.45c0-42.52,26.49-78.85,63.87-93.4v-97.05c0-21.95,17.79-39.75,39.75-39.75h0m0-7.99c-26.32,0-47.73,21.41-47.73,47.73V-102.16C14.24-94.13-1.07-81.44-12.38-65.21-25.04-47.03-31.73-25.68-31.73-3.45-31.73,25.44-20.48,52.6-.05,73.04s47.6,31.68,76.49,31.68,56.06-11.25,76.49-31.68S184.61,25.44,184.61-3.45c0-20.81-5.92-41.01-17.13-58.44-9.99-15.53-23.71-28.2-39.88-36.89v-95.11c0-26.32-21.41-47.73-47.73-47.73h0Z"/></g></g></g><g class="cls-8"><g><rect class="cls-4" x="244.05" y="206.92" width="12.51" height="43.08"/><g><path class="cls-1" d="M121.81,274.52c-3.71,0-7.16-1.99-9.01-5.19l-22.43-38.85c-1.38-2.4-1.75-5.19-1.03-7.88,.72-2.68,2.43-4.92,4.83-6.31l116.35-67.17c4.96-2.86,10.6-4.37,16.32-4.37,11.74,0,22.66,6.28,28.5,16.38,9.04,15.67,3.66,35.77-12.01,44.82l-116.35,67.17c-1.57,.91-3.36,1.39-5.17,1.39Z"/><path d="M226.84,148.75c9.98,0,19.72,5.17,25.04,14.39h0c7.92,13.73,3.18,31.44-10.55,39.36l-116.35,67.17c-1,.58-2.09,.85-3.18,.85-2.21,0-4.37-1.15-5.55-3.19l-22.43-38.85c-1.76-3.04-.7-6.97,2.34-8.73l116.35-67.17c4.51-2.6,9.45-3.84,14.33-3.84m0-7.99v0h0c-6.42,0-12.76,1.7-18.32,4.91l-116.35,67.17c-3.32,1.92-5.69,5.02-6.69,8.73-1,3.71-.49,7.59,1.43,10.91l22.43,38.85c2.56,4.43,7.33,7.18,12.47,7.18,2.51,0,4.99-.66,7.17-1.92l116.35-67.17c8.49-4.9,14.56-12.84,17.11-22.36,2.55-9.52,1.26-19.43-3.64-27.92-6.55-11.34-18.79-18.38-31.95-18.38h0Z"/></g><g><path class="cls-1" d="M76.44,373.41c-57.44,0-104.18-46.73-104.18-104.18,0-21.4,6.44-41.97,18.63-59.47,11.38-16.34,26.98-28.96,45.23-36.62V78.78c0-24.12,19.62-43.74,43.74-43.74s43.74,19.62,43.74,43.74v97.53c16.5,8.39,30.47,21.01,40.52,36.63,10.79,16.78,16.5,36.24,16.5,56.28,0,57.44-46.74,104.18-104.18,104.18Z"/><path d="M79.87,39.04c21.95,0,39.75,17.79,39.75,39.75v100.01c33.72,16.13,57.02,50.56,57.02,90.43,0,55.33-44.86,100.19-100.19,100.19s-100.19-44.86-100.19-100.19c0-42.52,26.49-78.85,63.87-93.4V78.78c0-21.95,17.79-39.75,39.75-39.75h0m0-7.99c-26.32,0-47.73,21.41-47.73,47.73v91.74c-17.9,8.03-33.21,20.72-44.52,36.95-12.66,18.17-19.35,39.53-19.35,61.75,0,28.89,11.25,56.06,31.68,76.49,20.43,20.43,47.6,31.68,76.49,31.68s56.06-11.25,76.49-31.68c20.43-20.43,31.68-47.6,31.68-76.49,0-20.81-5.92-41.01-17.13-58.44-9.99-15.53-23.71-28.2-39.88-36.89V78.78c0-26.32-21.41-47.73-47.73-47.73h0Z"/></g><rect class="cls-7" x="63.46" y="72.51" width="30.96" height="10.9" rx="5.45" ry="5.45"/><line class="cls-2" x1="62.3" y1="69.5" x2="62.3" y2="75.51"/><line class="cls-2" x1="95.58" y1="69.5" x2="95.58" y2="75.51"/><g><path class="cls-11" d="M66.7,110.04c-6.15,0-11.16-5-11.16-11.16s5-11.16,11.16-11.16h24.49c6.15,0,11.16,5,11.16,11.16s-5,11.16-11.16,11.16h-24.49Z"/><path d="M91.19,91.72c3.94,0,7.16,3.22,7.16,7.16s-3.22,7.16-7.16,7.16h-24.49c-3.94,0-7.16-3.22-7.16-7.16s3.22-7.16,7.16-7.16h24.49m0-7.99h-24.49c-8.35,0-15.15,6.8-15.15,15.15s6.8,15.15,15.15,15.15h24.49c8.35,0,15.15-6.8,15.15-15.15s-6.8-15.15-15.15-15.15h0Z"/></g><text class="cls-12" transform="translate(185.38 64.47)"><tspan x="0" y="0">슬쩍....버렸다</tspan></text><g><path class="cls-3" d="M246.11,202.25l9.19,.32c1.56,.05,2.89-1.18,2.94-2.74l1.11-32.06c5-2.49,8.53-7.57,8.73-13.52l.34-9.71h0l.07-2.1,1.56-45.17c.09-2.53-1.91-4.68-4.45-4.77l-22.17-.77c-2.53-.09-4.68,1.91-4.77,4.45l-.6,17.28h0s-.96,27.89-.96,27.89l-.41,11.81c-.21,5.94,2.96,11.26,7.78,14.09l-1.11,32.06c-.05,1.56,1.18,2.89,2.74,2.94Z"/><g><path class="cls-5" d="M244.47,167.25l-1.11,32.06c-.05,1.56,1.18,2.89,2.74,2.94l9.19,.32c1.56,.05,2.89-1.18,2.94-2.74l1.11-32.06c5-2.49,8.53-7.58,8.73-13.52l1.97-56.98c.09-2.53-1.91-4.68-4.45-4.77l-22.17-.77c-2.53-.09-4.68,1.91-4.77,4.45l-1.97,56.98c-.21,5.94,2.96,11.26,7.78,14.09Z"/><rect class="cls-6" x="237.54" y="113.99" width="31.4" height="30.01" transform="translate(501.88 266.66) rotate(-178.02)"/></g><rect class="cls-6" x="237.54" y="113.99" width="31.4" height="30.01" transform="translate(501.88 266.66) rotate(-178.02)"/><rect class="cls-1" x="245.77" y="171.02" width="2.5" height="16.31" rx="1.25" ry="1.25" transform="translate(489.05 365.02) rotate(-178.44)"/></g></g></g></svg>