<?xml version="1.0" encoding="UTF-8"?><svg id="_레이어_1" xmlns="http://www.w3.org/2000/svg" viewBox="0 0 400 250"><defs><style>.cls-1,.cls-2{fill:#fff;}.cls-2{stroke:#000;stroke-linecap:round;stroke-linejoin:round;stroke-width:7.99px;}.cls-3{fill:#ffd527;}.cls-4{font-family:KoreanSWGIG4-R, KoreanSWGIG4R;font-size:21.72px;}</style></defs><g><path class="cls-1" d="M87.54,373.41c-57.44,0-104.18-46.73-104.18-104.18,0-21.4,6.44-41.97,18.63-59.47,11.38-16.34,26.98-28.96,45.23-36.62V78.78c0-24.12,19.62-43.74,43.74-43.74s43.74,19.62,43.74,43.74v97.53c16.5,8.39,30.47,21.01,40.52,36.63,10.79,16.78,16.5,36.24,16.5,56.28,0,57.44-46.73,104.18-104.18,104.18Z"/><path d="M90.97,39.04c21.95,0,39.75,17.79,39.75,39.75v100.01c33.72,16.13,57.02,50.56,57.02,90.43,0,55.33-44.86,100.19-100.19,100.19S-12.65,324.56-12.65,269.23c0-42.52,26.49-78.85,63.87-93.4V78.78c0-21.95,17.79-39.75,39.75-39.75h0m0-7.99c-26.32,0-47.73,21.41-47.73,47.73v91.74c-17.9,8.03-33.21,20.72-44.52,36.95-12.66,18.17-19.35,39.53-19.35,61.75,0,28.89,11.25,56.06,31.68,76.49s47.6,31.68,76.49,31.68,56.06-11.25,76.49-31.68c20.43-20.43,31.68-47.6,31.68-76.49,0-20.81-5.92-41.01-17.13-58.44-9.99-15.53-23.71-28.2-39.88-36.89V78.78c0-26.32-21.41-47.73-47.73-47.73h0Z"/></g><line class="cls-2" x1="85.57" y1="67.96" x2="85.57" y2="73.97"/><line class="cls-2" x1="114.17" y1="66.37" x2="114.17" y2="72.38"/><g><path class="cls-3" d="M92.74,110.05c-5.71,0-10.48-4.28-11.09-9.95-.32-2.96,.53-5.86,2.4-8.19s4.53-3.79,7.48-4.11l24.35-2.65c.4-.04,.81-.06,1.2-.06,5.71,0,10.48,4.28,11.09,9.95,.32,2.95-.53,5.86-2.4,8.19-1.87,2.33-4.53,3.79-7.48,4.11l-24.35,2.65c-.4,.04-.81,.06-1.2,.06Z"/><path d="M117.09,89.08c3.6,0,6.72,2.73,7.12,6.39,.43,3.92-2.43,7.47-6.35,7.9l-24.35,2.64c-.26,.03-.52,.04-.77,.04-3.6,0-6.72-2.73-7.12-6.39-.43-3.92,2.43-7.47,6.35-7.9l24.35-2.64c.26-.03,.52-.04,.77-.04m0-7.99c-.54,0-1.09,.03-1.64,.09l-24.35,2.64c-4.01,.44-7.62,2.42-10.16,5.57-2.54,3.16-3.7,7.11-3.26,11.12,.84,7.7,7.31,13.51,15.06,13.51,.54,0,1.09-.03,1.64-.09l24.35-2.64c8.3-.9,14.33-8.39,13.42-16.7-.84-7.7-7.31-13.51-15.06-13.51h0Z"/></g><text class="cls-4" transform="translate(197.73 120.74)"><tspan x="0" y="0">결과는 과연?!</tspan></text></svg>