<?xml version="1.0" encoding="UTF-8"?><svg id="_레이어_1" xmlns="http://www.w3.org/2000/svg" xmlns:xlink="http://www.w3.org/1999/xlink" viewBox="0 0 400 250"><defs><style>.cls-1{fill:#def2ff;}.cls-2,.cls-3{fill:#fff;}.cls-3{stroke:#000;stroke-linecap:round;stroke-linejoin:round;stroke-width:7.99px;}.cls-4{clip-path:url(#clippath);}.cls-5{fill:none;}.cls-6{fill:#ffd527;}.cls-7{font-family:KoreanSWGIG4-R, KoreanSWGIG4R;font-size:21.72px;}</style><clipPath id="clippath"><rect class="cls-5" x="-3.77" y="-.94" width="393.4" height="251.88"/></clipPath></defs><g class="cls-4"><g><g><path class="cls-2" d="M121.81,274.52c-3.71,0-7.16-1.99-9.01-5.19l-22.43-38.85c-2.86-4.96-1.16-11.32,3.8-14.18l116.35-67.17c4.96-2.86,10.6-4.37,16.32-4.37,11.74,0,22.66,6.28,28.5,16.38,9.04,15.67,3.66,35.77-12.01,44.82l-116.35,67.17c-1.57,.91-3.36,1.39-5.17,1.39Z"/><path d="M226.84,148.75c9.98,0,19.72,5.17,25.04,14.39h0c7.92,13.73,3.18,31.44-10.55,39.36l-116.35,67.17c-1,.58-2.09,.85-3.18,.85-2.21,0-4.37-1.15-5.55-3.19l-22.43-38.85c-1.76-3.04-.7-6.97,2.34-8.73l116.35-67.17c4.51-2.6,9.45-3.84,14.33-3.84m0-7.99c-6.42,0-12.76,1.7-18.32,4.91l-116.35,67.17c-3.32,1.92-5.69,5.02-6.69,8.73-.99,3.71-.49,7.59,1.43,10.91l22.43,38.85c2.56,4.43,7.33,7.18,12.47,7.18,2.51,0,4.99-.66,7.17-1.92l116.35-67.17c17.57-10.15,23.62-32.7,13.47-50.27-6.55-11.34-18.79-18.38-31.95-18.38h0Z"/></g><g><path class="cls-2" d="M76.44,373.41c-57.44,0-104.18-46.73-104.18-104.18,0-21.4,6.44-41.97,18.63-59.47,11.38-16.34,26.98-28.96,45.23-36.62V78.78c0-24.12,19.62-43.74,43.74-43.74s43.74,19.62,43.74,43.74v97.53c16.5,8.39,30.47,21.01,40.52,36.63,10.79,16.78,16.5,36.24,16.5,56.28,0,57.44-46.74,104.18-104.18,104.18Z"/><path d="M79.87,39.04c21.95,0,39.75,17.79,39.75,39.75v100.01c33.72,16.13,57.02,50.56,57.02,90.43,0,55.33-44.86,100.19-100.19,100.19s-100.19-44.86-100.19-100.19c0-42.52,26.49-78.85,63.87-93.4V78.78c0-21.95,17.79-39.75,39.75-39.75h0m0-7.99c-26.32,0-47.73,21.41-47.73,47.73v91.74c-17.9,8.03-33.21,20.72-44.52,36.95-12.66,18.17-19.35,39.53-19.35,61.75,0,28.89,11.25,56.06,31.68,76.49s47.6,31.68,76.49,31.68,56.06-11.25,76.49-31.68,31.68-47.6,31.68-76.49c0-20.81-5.92-41.01-17.13-58.44-9.99-15.53-23.71-28.2-39.88-36.89V78.78c0-26.32-21.41-47.73-47.73-47.73h0Z"/></g><line class="cls-3" x1="95.58" y1="75.51" x2="95.58" y2="81.52"/><g><path class="cls-6" d="M119.26,110.04c-6.15,0-11.16-5-11.16-11.16s5-11.16,11.16-11.16h24.5c6.15,0,11.16,5,11.16,11.16s-5,11.16-11.16,11.16h-24.5Z"/><path d="M143.75,91.72c3.94,0,7.16,3.22,7.16,7.16s-3.22,7.16-7.16,7.16h-24.49c-3.94,0-7.16-3.22-7.16-7.16s3.22-7.16,7.16-7.16h24.49m0-7.99h-24.49c-8.35,0-15.15,6.8-15.15,15.15s6.8,15.15,15.15,15.15h24.49c8.35,0,15.15-6.8,15.15-15.15s-6.8-15.15-15.15-15.15h0Z"/></g><text class="cls-7" transform="translate(247.48 39.94)"><tspan x="0" y="0">물 먹는척 </tspan><tspan x="0" y="26.07" xml:space="preserve">하면서  </tspan><tspan x="0" y="52.13">술을 뱉었다!</tspan></text></g><g><g><path class="cls-2" d="M151.5,127.29c-1.4-1.1-2.28-2.75-2.42-4.52s.48-3.54,1.68-4.84l39.8-42.94c1.2-1.3,2.91-2.05,4.68-2.05s3.57,.78,4.78,2.15l54.97,61.88-38.47,41.51-65.03-51.19Z"/><path d="M195.26,76.94c.66,0,1.31,.27,1.79,.8l52.57,59.17-33.51,36.15-62.13-48.91c-1.1-.86-1.23-2.48-.28-3.51l39.8-42.94c.47-.51,1.12-.77,1.76-.77m0-7.99h0c-2.88,0-5.65,1.21-7.61,3.32l-39.8,42.94c-1.96,2.12-2.96,4.99-2.74,7.87,.23,2.88,1.66,5.56,3.93,7.35l62.13,48.91,5.79,4.56,5.01-5.4,33.51-36.15,4.93-5.31-4.81-5.42-52.57-59.17c-1.97-2.22-4.8-3.49-7.76-3.49h0Z"/></g><polygon class="cls-1" points="243.75 136.74 215.64 167.08 161.78 124.69 201.34 130.71 243.75 136.74"/></g></g></svg>