<?xml version="1.0" encoding="UTF-8"?><svg id="_레이어_1" xmlns="http://www.w3.org/2000/svg" xmlns:xlink="http://www.w3.org/1999/xlink" viewBox="0 0 400 250"><defs><style>.cls-1,.cls-2,.cls-3{fill:#fff;}.cls-2{stroke-width:7.99px;}.cls-2,.cls-3{stroke:#000;stroke-linecap:round;stroke-linejoin:round;}.cls-4{fill:url(#_무제_그라디언트_20);}.cls-5{fill:#ced5db;}.cls-6{clip-path:url(#clippath);}.cls-7{fill:none;}.cls-8{fill:#ffd527;}.cls-9{font-family:KoreanSWGIG4-R, KoreanSWGIG4R;font-size:21.72px;}.cls-3{stroke-width:4.79px;}</style><linearGradient id="_무제_그라디언트_20" x1="91.29" y1="287.07" x2="91.29" y2="108.67" gradientUnits="userSpaceOnUse"><stop offset="0" stop-color="blue"/><stop offset=".32" stop-color="lime"/><stop offset=".6" stop-color="#fcee21"/><stop offset=".8" stop-color="#fbb03b"/><stop offset="1" stop-color="#c1272d"/></linearGradient><clipPath id="clippath"><rect class="cls-7" x="-3.77" y="-285.87" width="393.4" height="251.88"/></clipPath></defs><g><path class="cls-1" d="M87.54,373.41c-57.44,0-104.18-46.73-104.18-104.18,0-21.4,6.44-41.97,18.63-59.47,11.38-16.34,26.98-28.96,45.23-36.62V78.78c0-24.12,19.62-43.74,43.74-43.74s43.74,19.62,43.74,43.74v97.53c16.5,8.39,30.47,21.01,40.52,36.63,10.79,16.78,16.5,36.24,16.5,56.28,0,57.44-46.74,104.18-104.18,104.18Z"/><path d="M90.97,39.04c21.95,0,39.75,17.79,39.75,39.75v100.01c33.72,16.13,57.02,50.56,57.02,90.43,0,55.33-44.86,100.19-100.19,100.19S-12.65,324.56-12.65,269.23c0-42.52,26.49-78.85,63.87-93.4V78.78c0-21.95,17.79-39.75,39.75-39.75h0m0-7.99c-26.32,0-47.73,21.41-47.73,47.73v91.74c-17.9,8.03-33.21,20.72-44.52,36.95-12.66,18.17-19.35,39.53-19.35,61.75,0,28.89,11.25,56.06,31.68,76.49s47.6,31.68,76.49,31.68,56.06-11.25,76.49-31.68,31.68-47.6,31.68-76.49c0-20.81-5.92-41.01-17.13-58.44-9.99-15.53-23.71-28.2-39.88-36.89V78.78c0-26.32-21.41-47.73-47.73-47.73h0Z"/></g><rect class="cls-5" x="74.88" y="76.98" width="30.96" height="10.9" rx="5.45" ry="5.45"/><line class="cls-2" x1="73.73" y1="73.97" x2="73.73" y2="79.98"/><line class="cls-2" x1="107" y1="73.97" x2="107" y2="79.98"/><rect class="cls-4" x="73.27" y="110.52" width="36.05" height="144.66"/><g><path class="cls-8" d="M78.12,114.51c-6.15,0-11.16-5-11.16-11.16s5-11.16,11.16-11.16h24.49c6.15,0,11.16,5,11.16,11.16s-5,11.16-11.16,11.16h-24.49Z"/><path d="M102.61,96.19c3.94,0,7.16,3.22,7.16,7.16s-3.22,7.16-7.16,7.16h-24.49c-3.94,0-7.16-3.22-7.16-7.16s3.22-7.16,7.16-7.16h24.49m0-7.99h-24.49c-8.35,0-15.15,6.8-15.15,15.15s6.8,15.15,15.15,15.15h24.49c8.35,0,15.15-6.8,15.15-15.15s-6.8-15.15-15.15-15.15h0Z"/></g><text class="cls-9" transform="translate(171.86 113.57)"><tspan x="0" y="0">우리 금주하기로 </tspan><tspan x="0" y="26.07">했잖아...................</tspan></text><line class="cls-3" x1="62.68" y1="70.91" x2="116.4" y2="70.91"/><line class="cls-3" x1="84.97" y1="70.91" x2="84.97" y2="62.92"/><line class="cls-3" x1="93.91" y1="70.91" x2="93.91" y2="62.92"/><g class="cls-6"><g><path class="cls-1" d="M76.44,88.47C19,88.47-27.74,41.74-27.74-15.71c0-21.4,6.44-41.97,18.63-59.47,11.38-16.34,26.98-28.96,45.23-36.62v-94.36c0-24.12,19.62-43.74,43.74-43.74s43.74,19.62,43.74,43.74V-108.62c16.5,8.39,30.47,21.01,40.52,36.63,10.79,16.78,16.5,36.24,16.5,56.28,0,57.44-46.74,104.18-104.18,104.18Z"/><path d="M79.87-245.9c21.95,0,39.75,17.79,39.75,39.75V-106.14c33.72,16.13,57.02,50.56,57.02,90.43,0,55.33-44.86,100.19-100.19,100.19S-23.75,39.62-23.75-15.71c0-42.52,26.49-78.85,63.87-93.4v-97.05c0-21.95,17.79-39.75,39.75-39.75h0m0-7.99c-26.32,0-47.73,21.41-47.73,47.73V-114.42C14.24-106.39-1.07-93.69-12.38-77.46-25.04-59.29-31.73-37.93-31.73-15.71-31.73,13.18-20.48,40.35-.05,60.78c20.43,20.43,47.6,31.68,76.49,31.68s56.06-11.25,76.49-31.68c20.43-20.43,31.68-47.6,31.68-76.49,0-20.81-5.92-41.01-17.13-58.44-9.99-15.53-23.71-28.2-39.88-36.89v-95.11c0-26.32-21.41-47.73-47.73-47.73h0Z"/></g></g></svg>