<?xml version="1.0" encoding="UTF-8"?><svg id="_레이어_1" xmlns="http://www.w3.org/2000/svg" xmlns:xlink="http://www.w3.org/1999/xlink" viewBox="0 0 400 250"><defs><style>.cls-1{fill:#def2ff;}.cls-2,.cls-3{fill:#fff;}.cls-3{stroke:#000;stroke-linecap:round;stroke-linejoin:round;stroke-width:7.99px;}.cls-4{fill:#ced5db;}.cls-5{clip-path:url(#clippath-1);}.cls-6{clip-path:url(#clippath);}.cls-7{fill:none;}.cls-8{fill:#ffd527;}.cls-9{font-family:KoreanSWGIG4-R, KoreanSWGIG4R;font-size:21.72px;}</style><clipPath id="clippath"><rect class="cls-7" x="-3.77" y="-279.75" width="393.4" height="251.88"/></clipPath><clipPath id="clippath-1"><rect class="cls-7" x="-3.77" y="-.94" width="393.4" height="251.88"/></clipPath></defs><g class="cls-6"><g><path class="cls-2" d="M76.44,94.6C19,94.6-27.74,47.86-27.74-9.58c0-21.4,6.44-41.97,18.63-59.47,11.38-16.34,26.98-28.96,45.23-36.62v-94.36c0-24.12,19.62-43.74,43.74-43.74s43.74,19.62,43.74,43.74V-102.49c16.5,8.39,30.47,21.01,40.52,36.63,10.79,16.78,16.5,36.24,16.5,56.28,0,57.44-46.74,104.18-104.18,104.18Z"/><path d="M79.87-239.77c21.95,0,39.75,17.79,39.75,39.75V-100.01c33.72,16.13,57.02,50.56,57.02,90.43,0,55.33-44.86,100.19-100.19,100.19S-23.75,45.75-23.75-9.58c0-42.52,26.49-78.85,63.87-93.4v-97.05c0-21.95,17.79-39.75,39.75-39.75h0m0-7.99c-26.32,0-47.73,21.41-47.73,47.73V-108.29C14.24-100.26-1.07-87.57-12.38-71.33-25.04-53.16-31.73-31.81-31.73-9.58-31.73,19.31-20.48,46.48-.05,66.91s47.6,31.68,76.49,31.68,56.06-11.25,76.49-31.68,31.68-47.6,31.68-76.49c0-20.81-5.92-41.01-17.13-58.44-9.99-15.53-23.71-28.2-39.88-36.89v-95.11c0-26.32-21.41-47.73-47.73-47.73h0Z"/></g></g><g class="cls-5"><g><g><path class="cls-2" d="M121.81,274.52c-3.71,0-7.16-1.99-9.01-5.19l-22.43-38.85c-2.86-4.96-1.16-11.32,3.8-14.18l116.35-67.17c4.96-2.86,10.6-4.37,16.32-4.37,11.74,0,22.66,6.28,28.5,16.38,9.04,15.67,3.66,35.77-12.01,44.82l-116.35,67.17c-1.57,.91-3.36,1.39-5.17,1.39Z"/><path d="M226.84,148.75c9.98,0,19.72,5.17,25.04,14.39h0c7.92,13.73,3.18,31.44-10.55,39.36l-116.35,67.17c-1,.58-2.09,.85-3.18,.85-2.21,0-4.37-1.15-5.55-3.19l-22.43-38.85c-1.76-3.04-.7-6.97,2.34-8.73l116.35-67.17c4.51-2.6,9.45-3.84,14.33-3.84m0-7.99v0h0c-6.42,0-12.76,1.7-18.32,4.91l-116.35,67.17c-6.86,3.96-9.22,12.77-5.26,19.64l22.43,38.85c2.56,4.43,7.33,7.18,12.47,7.18,2.51,0,4.99-.66,7.17-1.92l116.35-67.17c17.57-10.15,23.62-32.7,13.47-50.27-6.55-11.34-18.79-18.38-31.95-18.38h0Z"/></g><g><path class="cls-2" d="M76.44,373.41c-57.44,0-104.18-46.73-104.18-104.18,0-21.4,6.44-41.97,18.63-59.47,11.38-16.34,26.98-28.96,45.23-36.62V78.78c0-24.12,19.62-43.74,43.74-43.74s43.74,19.62,43.74,43.74v97.53c16.5,8.39,30.47,21.01,40.52,36.63,10.79,16.78,16.5,36.24,16.5,56.28,0,57.44-46.74,104.18-104.18,104.18Z"/><path d="M79.87,39.04c21.95,0,39.75,17.79,39.75,39.75v100.01c33.72,16.13,57.02,50.56,57.02,90.43,0,55.33-44.86,100.19-100.19,100.19s-100.19-44.86-100.19-100.19c0-42.52,26.49-78.85,63.87-93.4V78.78c0-21.95,17.79-39.75,39.75-39.75h0m0-7.99c-26.32,0-47.73,21.41-47.73,47.73v91.74c-17.9,8.03-33.21,20.72-44.52,36.95-12.66,18.17-19.35,39.53-19.35,61.75,0,28.89,11.25,56.06,31.68,76.49s47.6,31.68,76.49,31.68,56.06-11.25,76.49-31.68,31.68-47.6,31.68-76.49c0-20.81-5.92-41.01-17.13-58.44-9.99-15.53-23.71-28.2-39.88-36.89V78.78c0-26.32-21.41-47.73-47.73-47.73h0Z"/></g><rect class="cls-4" x="63.46" y="72.51" width="30.96" height="10.9" rx="5.45" ry="5.45"/><line class="cls-3" x1="62.3" y1="69.5" x2="62.3" y2="75.51"/><line class="cls-3" x1="95.58" y1="69.5" x2="95.58" y2="75.51"/><g><path class="cls-8" d="M66.7,110.04c-6.15,0-11.16-5-11.16-11.16s5-11.16,11.16-11.16h24.49c6.15,0,11.16,5,11.16,11.16s-5,11.16-11.16,11.16h-24.49Z"/><path d="M91.19,91.72c3.94,0,7.16,3.22,7.16,7.16s-3.22,7.16-7.16,7.16h-24.49c-3.94,0-7.16-3.22-7.16-7.16s3.22-7.16,7.16-7.16h24.49m0-7.99h-24.49c-8.35,0-15.15,6.8-15.15,15.15s6.8,15.15,15.15,15.15h24.49c8.35,0,15.15-6.8,15.15-15.15s-6.8-15.15-15.15-15.15h0Z"/></g><text class="cls-9" transform="translate(166.41 53.09)"><tspan x="0" y="0">미리 물을 채워놨지!</tspan></text></g><g><g><path class="cls-2" d="M226.67,180.25l-6.67-82.49c-.14-1.77,.47-3.54,1.67-4.85,1.21-1.31,2.92-2.06,4.69-2.06h58.55c1.8,0,3.52,.76,4.73,2.09s1.8,3.12,1.63,4.91l-8.01,82.38h-56.59Z"/><path d="M284.92,94.85c1.41,0,2.52,1.22,2.38,2.63l-7.66,78.78h-49.29l-6.37-78.81c-.11-1.39,.99-2.59,2.39-2.59h58.55m0-7.99h-58.55c-2.89,0-5.67,1.22-7.63,3.34-1.96,2.12-2.95,4.99-2.72,7.87l6.37,78.81,.59,7.34h63.9l.7-7.21,7.66-78.78c.28-2.91-.68-5.82-2.64-7.98-1.96-2.16-4.77-3.4-7.69-3.4h0Z"/></g><polygon class="cls-1" points="275.78 171.84 234.42 171.84 228.9 103.53 282.43 103.53 275.78 171.84"/></g></g></svg>